# xmcd
#
# Track frame offsets: 
#        150
#        15115
#        27455
#        42899
#        54840
#        71934
#        75674
#        91603
#        109648
#        126862
#        144299
#        153001
#        171755
#
# Disc length: 2488 seconds
#
# Revision: 1
# Processed by: cddbd v1.5.2PL0 Copyright (c) Steve Scherf et al.
# Submitted via: ExactAudioCopyFreeDBPlugin 1.0
#
DISCID=9109b60d
DTITLE=Keith B. Brown - Down The Line
DYEAR=2011
DGENRE=Blues
TTITLE0=Down The Line
TTITLE1=Them Boys From Memphis
TTITLE2=All I Need
TTITLE3=Satisfy My Soul
TTITLE4=All The Wrong Moves
TTITLE5=Miss Ida Mae
TTITLE6=Bad Luck Child
TTITLE7=Kick It
TTITLE8=Cold Fever
TTITLE9=Got To Keep Movin' I
TTITLE10=Tell Me What You Say
TTITLE11=Sweet Pretty Music
TTITLE12=Got To Keep Movin' II
EXTD=
EXTT0=
EXTT1=
EXTT2=
EXTT3=
EXTT4=
EXTT5=
EXTT6=
EXTT7=
EXTT8=
EXTT9=
EXTT10=
EXTT11=
EXTT12=
PLAYORDER=
